<svg xmlns="http://www.w3.org/2000/svg" viewBox="0 0 800 500">
  <rect width="800" height="500" fill="#1f2128"/>
  <rect x="20" y="20" width="760" height="460" fill="none" stroke="#3a3d46" stroke-width="3"/>
  <line x1="300" y1="20" x2="300" y2="300" stroke="#3a3d46" stroke-width="2"/>
  <line x1="300" y1="300" x2="780" y2="300" stroke="#3a3d46" stroke-width="2"/>
  <line x1="560" y1="20" x2="560" y2="300" stroke="#3a3d46" stroke-width="2"/>
  <g fill="#ff5722" opacity="0.9">
    <rect x="60" y="80" width="16" height="70"/>
    <rect x="100" y="80" width="16" height="70"/>
    <rect x="140" y="80" width="16" height="70"/>
    <rect x="180" y="80" width="16" height="70"/>
  </g>
  <g fill="none" stroke="#f2efe9" stroke-width="3">
    <circle cx="400" cy="120" r="26"/>
    <circle cx="460" cy="120" r="26"/>
    <circle cx="520" cy="120" r="26"/>
  </g>
  <g fill="#3a3d46">
    <rect x="620" y="60" width="120" height="26" rx="4"/>
    <rect x="620" y="100" width="120" height="26" rx="4"/>
    <rect x="620" y="140" width="120" height="26" rx="4"/>
  </g>
  <g fill="none" stroke="#8b8f9c" stroke-width="2">
    <circle cx="120" cy="390" r="30"/>
    <circle cx="220" cy="390" r="30"/>
    <circle cx="320" cy="390" r="30"/>
  </g>
  <g fill="none" stroke="#ff5722" stroke-width="2" opacity="0.7">
    <rect x="440" y="340" width="300" height="110" rx="6"/>
    <line x1="440" y1="395" x2="740" y2="395"/>
  </g>
</svg>
