<svg xmlns="http://www.w3.org/2000/svg" viewBox="0 0 800 400">
  <rect width="800" height="400" fill="#1f2128"/>
  <rect width="800" height="400" fill="none" stroke="#2c2e36" stroke-width="1"/>
  <g fill="#3a3d46">
    <g transform="translate(140,120)">
      <circle r="22"/>
      <path d="M-30 30c8-14 52-14 60 0v50c0 8-6 14-14 14h-32c-8 0-14-6-14-14z"/>
      <rect x="-16" y="90" width="16" height="70" rx="7"/>
      <rect x="4" y="90" width="16" height="70" rx="7"/>
    </g>
    <g transform="translate(340,110)">
      <circle r="24"/>
      <path d="M-32 32c9-15 55-15 64 0v54c0 9-7 15-15 15h-34c-8 0-15-6-15-15z"/>
      <rect x="-18" y="96" width="17" height="76" rx="7"/>
      <rect x="4" y="96" width="17" height="76" rx="7"/>
    </g>
    <g transform="translate(540,125)">
      <circle r="20"/>
      <path d="M-27 27c7-12 47-12 54 0v46c0 7-5 12-12 12h-30c-7 0-12-5-12-12z"/>
      <rect x="-14" y="80" width="14" height="64" rx="6"/>
      <rect x="4" y="80" width="14" height="64" rx="6"/>
    </g>
    <g transform="translate(660,118)">
      <circle r="22"/>
      <path d="M-30 30c8-14 52-14 60 0v50c0 8-6 14-14 14h-32c-8 0-14-6-14-14z"/>
      <rect x="-16" y="90" width="16" height="70" rx="7"/>
      <rect x="4" y="90" width="16" height="70" rx="7"/>
    </g>
  </g>
  <line x1="60" y1="330" x2="760" y2="330" stroke="#ff5722" stroke-width="4" stroke-linecap="round" opacity="0.7"/>
</svg>
